<svg width="852" height="393" viewBox="0 0 852 393" fill="none" xmlns="http://www.w3.org/2000/svg">
<mask id="mask0_63_74243" style="mask-type:alpha" maskUnits="userSpaceOnUse" x="0" y="0" width="852" height="393">
<rect width="852" height="393" fill="#16103E"/>
</mask>
<g mask="url(#mask0_63_74243)">
<g style="mix-blend-mode:color-dodge" clip-path="url(#clip0_63_74243)">
<g style="mix-blend-mode:color-dodge">
<rect width="19.3865" height="19.3865" transform="translate(569.3 347.146)" fill="black"/>
<circle cx="578.993" cy="356.84" r="9.69323" fill="url(#paint0_radial_63_74243)"/>
</g>
<g style="mix-blend-mode:color-dodge">
<rect width="19.3865" height="19.3865" transform="translate(524.708 25.3379)" fill="black"/>
<circle cx="534.401" cy="35.0311" r="9.69323" fill="url(#paint1_radial_63_74243)"/>
</g>
<g style="mix-blend-mode:color-dodge" opacity="0.1">
<rect width="19.3865" height="19.3865" transform="translate(369.617 141.641)" fill="black"/>
<circle cx="379.31" cy="151.334" r="9.69323" fill="url(#paint2_radial_63_74243)"/>
</g>
<g style="mix-blend-mode:color-dodge">
<rect width="19.3865" height="19.3865" transform="translate(274.627 137.764)" fill="black"/>
<circle cx="284.32" cy="147.457" r="9.69323" fill="url(#paint3_radial_63_74243)"/>
</g>
<g style="mix-blend-mode:color-dodge" opacity="0.1">
<rect width="19.3865" height="19.3865" transform="translate(703.065 225.008)" fill="black"/>
<circle cx="712.759" cy="234.701" r="9.69323" fill="url(#paint4_radial_63_74243)"/>
</g>
<g style="mix-blend-mode:color-dodge">
<rect width="19.3865" height="19.3865" transform="translate(375.436 -17.3262)" fill="black"/>
<circle cx="385.129" cy="-7.63295" r="9.69323" fill="url(#paint5_radial_63_74243)"/>
</g>
<g style="mix-blend-mode:color-dodge" opacity="0.1">
<rect width="19.3865" height="19.3865" transform="translate(231.975 356.834)" fill="black"/>
<circle cx="241.668" cy="366.527" r="9.69323" fill="url(#paint6_radial_63_74243)"/>
</g>
<g style="mix-blend-mode:color-dodge">
<rect width="19.3865" height="19.3865" transform="translate(173.815 44.7148)" fill="black"/>
<circle cx="183.509" cy="54.4081" r="9.69323" fill="url(#paint7_radial_63_74243)"/>
</g>
<g style="mix-blend-mode:color-dodge" opacity="0.1">
<rect width="19.3865" height="19.3865" transform="translate(38.1133 114.502)" fill="black"/>
<circle cx="47.8065" cy="124.195" r="9.69323" fill="url(#paint8_radial_63_74243)"/>
</g>
<g style="mix-blend-mode:color-dodge" opacity="0.1">
<rect width="19.3865" height="19.3865" transform="translate(61.375 188.172)" fill="black"/>
<circle cx="71.0682" cy="197.865" r="9.69323" fill="url(#paint9_radial_63_74243)"/>
</g>
<g style="mix-blend-mode:color-dodge">
<rect width="19.3865" height="19.3865" transform="translate(158.309 250.205)" fill="black"/>
<circle cx="168.002" cy="259.898" r="9.69323" fill="url(#paint10_radial_63_74243)"/>
</g>
<g style="mix-blend-mode:color-dodge">
<rect width="19.3865" height="19.3865" transform="translate(187.386 362.645)" fill="black"/>
<circle cx="197.079" cy="372.338" r="9.69323" fill="url(#paint11_radial_63_74243)"/>
</g>
<g style="mix-blend-mode:color-dodge">
<rect width="19.3865" height="19.3865" transform="translate(751.531 48.5918)" fill="black"/>
<circle cx="761.224" cy="58.2851" r="9.69323" fill="url(#paint12_radial_63_74243)"/>
</g>
<g style="mix-blend-mode:color-dodge">
<rect width="19.3865" height="19.3865" transform="translate(834.892 327.754)" fill="black"/>
<circle cx="844.585" cy="337.447" r="9.69323" fill="url(#paint13_radial_63_74243)"/>
</g>
</g>
<g filter="url(#filter0_d_63_74243)">
<ellipse cx="426" cy="609.896" rx="1005" ry="208.896" fill="url(#paint14_linear_63_74243)" shape-rendering="crispEdges"/>
<path d="M426 399.5C703.594 399.5 954.951 422.887 1136.95 460.716C1227.93 479.628 1301.66 502.166 1352.68 527.238C1378.19 539.773 1398.1 552.979 1411.65 566.744C1425.21 580.514 1432.5 594.951 1432.5 609.897C1432.5 624.842 1425.21 639.278 1411.65 653.048C1398.1 666.813 1378.19 680.019 1352.68 692.554C1301.66 717.626 1227.93 740.164 1136.95 759.076C954.951 796.905 703.594 820.292 426 820.292C148.406 820.292 -102.951 796.905 -284.947 759.076C-375.933 740.164 -449.664 717.626 -500.684 692.554C-526.191 680.019 -546.1 666.813 -559.651 653.048C-573.207 639.278 -580.5 624.842 -580.5 609.896C-580.5 594.951 -573.207 580.514 -559.651 566.744C-546.1 552.979 -526.191 539.773 -500.684 527.238C-449.664 502.166 -375.933 479.628 -284.947 460.716C-102.951 422.887 148.406 399.5 426 399.5Z" stroke="url(#paint15_radial_63_74243)" stroke-width="3" shape-rendering="crispEdges"/>
</g>
<g filter="url(#filter1_f_63_74243)">
<ellipse cx="426" cy="824.325" rx="477" ry="187.325" fill="#B352FF" fill-opacity="0.7"/>
</g>
<rect x="322" y="378.5" width="208" height="5" rx="2.5" fill="white"/>
</g>
<defs>
<filter id="filter0_d_63_74243" x="-662" y="288" width="2176" height="583.792" filterUnits="userSpaceOnUse" color-interpolation-filters="sRGB">
<feFlood flood-opacity="0" result="BackgroundImageFix"/>
<feColorMatrix in="SourceAlpha" type="matrix" values="0 0 0 0 0 0 0 0 0 0 0 0 0 0 0 0 0 0 127 0" result="hardAlpha"/>
<feOffset dy="-30"/>
<feGaussianBlur stdDeviation="40"/>
<feComposite in2="hardAlpha" operator="out"/>
<feColorMatrix type="matrix" values="0 0 0 0 0.780392 0 0 0 0 0.501961 0 0 0 0 1 0 0 0 0.2 0"/>
<feBlend mode="normal" in2="BackgroundImageFix" result="effect1_dropShadow_63_74243"/>
<feBlend mode="normal" in="SourceGraphic" in2="effect1_dropShadow_63_74243" result="shape"/>
</filter>
<filter id="filter1_f_63_74243" x="-351" y="337" width="1554" height="974.651" filterUnits="userSpaceOnUse" color-interpolation-filters="sRGB">
<feFlood flood-opacity="0" result="BackgroundImageFix"/>
<feBlend mode="normal" in="SourceGraphic" in2="BackgroundImageFix" result="shape"/>
<feGaussianBlur stdDeviation="150" result="effect1_foregroundBlur_63_74243"/>
</filter>
<radialGradient id="paint0_radial_63_74243" cx="0" cy="0" r="1" gradientUnits="userSpaceOnUse" gradientTransform="translate(578.993 356.84) rotate(90) scale(9.69323)">
<stop offset="0.145833" stop-color="white"/>
<stop offset="1" stop-color="#A55EFF" stop-opacity="0"/>
</radialGradient>
<radialGradient id="paint1_radial_63_74243" cx="0" cy="0" r="1" gradientUnits="userSpaceOnUse" gradientTransform="translate(534.401 35.0311) rotate(90) scale(9.69323)">
<stop offset="0.145833" stop-color="white"/>
<stop offset="1" stop-color="#A55EFF" stop-opacity="0"/>
</radialGradient>
<radialGradient id="paint2_radial_63_74243" cx="0" cy="0" r="1" gradientUnits="userSpaceOnUse" gradientTransform="translate(379.31 151.334) rotate(90) scale(9.69323)">
<stop offset="0.145833" stop-color="white"/>
<stop offset="1" stop-color="#A55EFF" stop-opacity="0"/>
</radialGradient>
<radialGradient id="paint3_radial_63_74243" cx="0" cy="0" r="1" gradientUnits="userSpaceOnUse" gradientTransform="translate(284.32 147.457) rotate(90) scale(9.69323)">
<stop offset="0.145833" stop-color="white"/>
<stop offset="1" stop-color="#A55EFF" stop-opacity="0"/>
</radialGradient>
<radialGradient id="paint4_radial_63_74243" cx="0" cy="0" r="1" gradientUnits="userSpaceOnUse" gradientTransform="translate(712.759 234.701) rotate(90) scale(9.69323)">
<stop offset="0.145833" stop-color="white"/>
<stop offset="1" stop-color="#A55EFF" stop-opacity="0"/>
</radialGradient>
<radialGradient id="paint5_radial_63_74243" cx="0" cy="0" r="1" gradientUnits="userSpaceOnUse" gradientTransform="translate(385.129 -7.63295) rotate(90) scale(9.69323)">
<stop offset="0.145833" stop-color="white"/>
<stop offset="1" stop-color="#A55EFF" stop-opacity="0"/>
</radialGradient>
<radialGradient id="paint6_radial_63_74243" cx="0" cy="0" r="1" gradientUnits="userSpaceOnUse" gradientTransform="translate(241.668 366.527) rotate(90) scale(9.69323)">
<stop offset="0.145833" stop-color="white"/>
<stop offset="1" stop-color="#A55EFF" stop-opacity="0"/>
</radialGradient>
<radialGradient id="paint7_radial_63_74243" cx="0" cy="0" r="1" gradientUnits="userSpaceOnUse" gradientTransform="translate(183.509 54.4081) rotate(90) scale(9.69323)">
<stop offset="0.145833" stop-color="white"/>
<stop offset="1" stop-color="#A55EFF" stop-opacity="0"/>
</radialGradient>
<radialGradient id="paint8_radial_63_74243" cx="0" cy="0" r="1" gradientUnits="userSpaceOnUse" gradientTransform="translate(47.8065 124.195) rotate(90) scale(9.69323)">
<stop offset="0.015625" stop-color="white"/>
<stop offset="1" stop-color="#A55EFF" stop-opacity="0"/>
</radialGradient>
<radialGradient id="paint9_radial_63_74243" cx="0" cy="0" r="1" gradientUnits="userSpaceOnUse" gradientTransform="translate(71.0682 197.865) rotate(90) scale(9.69323)">
<stop offset="0.015625" stop-color="white"/>
<stop offset="1" stop-color="#A55EFF" stop-opacity="0"/>
</radialGradient>
<radialGradient id="paint10_radial_63_74243" cx="0" cy="0" r="1" gradientUnits="userSpaceOnUse" gradientTransform="translate(168.002 259.898) rotate(90) scale(9.69323)">
<stop offset="0.015625" stop-color="white"/>
<stop offset="1" stop-color="#A55EFF" stop-opacity="0"/>
</radialGradient>
<radialGradient id="paint11_radial_63_74243" cx="0" cy="0" r="1" gradientUnits="userSpaceOnUse" gradientTransform="translate(197.079 372.338) rotate(90) scale(9.69323)">
<stop offset="0.015625" stop-color="white"/>
<stop offset="1" stop-color="#A55EFF" stop-opacity="0"/>
</radialGradient>
<radialGradient id="paint12_radial_63_74243" cx="0" cy="0" r="1" gradientUnits="userSpaceOnUse" gradientTransform="translate(761.224 58.2851) rotate(90) scale(9.69323)">
<stop offset="0.015625" stop-color="white"/>
<stop offset="1" stop-color="#A55EFF" stop-opacity="0"/>
</radialGradient>
<radialGradient id="paint13_radial_63_74243" cx="0" cy="0" r="1" gradientUnits="userSpaceOnUse" gradientTransform="translate(844.585 337.447) rotate(90) scale(9.69323)">
<stop offset="0.015625" stop-color="white"/>
<stop offset="1" stop-color="#A55EFF" stop-opacity="0"/>
</radialGradient>
<linearGradient id="paint14_linear_63_74243" x1="435.995" y1="398.001" x2="435.995" y2="818.792" gradientUnits="userSpaceOnUse">
<stop stop-color="#1A1053"/>
<stop offset="1" stop-color="#240930"/>
</linearGradient>
<radialGradient id="paint15_radial_63_74243" cx="0" cy="0" r="1" gradientUnits="userSpaceOnUse" gradientTransform="translate(437.494 391.505) rotate(90) scale(273.864 738.103)">
<stop stop-color="#9847D7"/>
<stop offset="1" stop-opacity="0"/>
</radialGradient>
<clipPath id="clip0_63_74243">
<rect width="393" height="852" fill="white" transform="translate(0 393) rotate(-90)"/>
</clipPath>
</defs>
</svg>
